<svg width="11" height="16" viewBox="0 0 11 16" fill="none" xmlns="http://www.w3.org/2000/svg">
<path d="M7.32782 7.43614C7.32782 7.43614 7.4464 7.31756 7.68357 7.08039C7.92073 6.84323 8.03932 6.38945 8.03932 5.71906C8.03932 5.04868 7.80215 4.47632 7.32782 4.00199C6.85349 3.52766 6.28113 3.29049 5.61074 3.29049C4.94036 3.29049 4.368 3.52766 3.89367 4.00199C3.41934 4.47632 3.18217 5.04868 3.18217 5.71906C3.18217 6.38945 3.41934 6.96181 3.89367 7.43614C4.368 7.91047 4.94036 8.14764 5.61074 8.14764C6.28113 8.14764 6.85349 7.91047 7.32782 7.43614ZM10.4679 5.71906C10.4679 6.40842 10.3635 6.97446 10.1548 7.41717L6.7017 14.7598C6.60051 14.9685 6.45031 15.1329 6.25109 15.2531C6.05187 15.3733 5.83842 15.4333 5.61074 15.4333C5.38307 15.4333 5.16962 15.3733 4.9704 15.2531C4.77118 15.1329 4.62414 14.9685 4.52927 14.7598L1.06666 7.41717C0.857954 6.97446 0.753601 6.40842 0.753601 5.71906C0.753601 4.37829 1.22793 3.23357 2.17659 2.28491C3.12525 1.33625 4.26997 0.861921 5.61074 0.861921C6.95152 0.861921 8.09624 1.33625 9.0449 2.28491C9.99356 3.23357 10.4679 4.37829 10.4679 5.71906Z" fill="#F44336"/>
</svg>
