<svg width="16" height="15" viewBox="0 0 16 15" fill="none" xmlns="http://www.w3.org/2000/svg">
<path d="M9.7578 9.43478C9.7578 9.43478 9.87638 9.3162 10.1135 9.07903C10.3507 8.84187 10.4693 8.38809 10.4693 7.7177C10.4693 7.04732 10.2321 6.47496 9.7578 6.00063C9.28346 5.5263 8.71111 5.28913 8.04072 5.28913C7.37033 5.28913 6.79797 5.5263 6.32364 6.00063C5.84931 6.47496 5.61215 7.04732 5.61215 7.7177C5.61215 8.38809 5.84931 8.96045 6.32364 9.43478C6.79797 9.90911 7.37033 10.1463 8.04072 10.1463C8.71111 10.1463 9.28346 9.90911 9.7578 9.43478ZM10.6875 5.07094C10.6875 5.07094 10.8693 5.25277 11.233 5.61642C11.5966 5.98007 11.7784 6.6805 11.7784 7.7177C11.7784 8.75491 11.4148 9.63716 10.6875 10.3645C9.96018 11.0918 9.07792 11.4554 8.04072 11.4554C7.00352 11.4554 6.12126 11.0918 5.39396 10.3645C4.66665 9.63716 4.303 8.75491 4.303 7.7177C4.303 6.6805 4.66665 5.79825 5.39396 5.07094C6.12126 4.34363 7.00352 3.97998 8.04072 3.97998C9.07792 3.97998 9.96018 4.34363 10.6875 5.07094ZM12.5469 3.21157C12.5469 3.21157 12.5895 3.25426 12.6749 3.33963C12.7603 3.42501 12.803 3.58787 12.803 3.82819C12.803 4.06852 12.7176 4.27407 12.5469 4.44482C12.3761 4.61558 12.1706 4.70096 11.9302 4.70096C11.6899 4.70096 11.4844 4.61558 11.3136 4.44482C11.1428 4.27407 11.0575 4.06852 11.0575 3.82819C11.0575 3.58787 11.1428 3.38232 11.3136 3.21157C11.4844 3.04081 11.6899 2.95543 11.9302 2.95543C12.1706 2.95543 12.3761 3.04081 12.5469 3.21157ZM8.76645 1.7364C8.76645 1.7364 8.65656 1.73719 8.43679 1.73877C8.21701 1.74035 8.08499 1.74114 8.04072 1.74114C7.99645 1.74114 7.75454 1.73956 7.31499 1.7364C6.87545 1.73324 6.54184 1.73324 6.31416 1.7364C6.08648 1.73956 5.78133 1.74905 5.3987 1.76486C5.01607 1.78067 4.69037 1.81229 4.42158 1.85972C4.15279 1.90716 3.92669 1.96566 3.74329 2.03523C3.42707 2.16171 3.14879 2.34512 2.90846 2.58545C2.66814 2.82578 2.48473 3.10405 2.35824 3.42027C2.28867 3.60368 2.23017 3.82978 2.18274 4.09856C2.13531 4.36735 2.10368 4.69306 2.08787 5.07568C2.07206 5.45831 2.06258 5.76346 2.05941 5.99114C2.05625 6.21882 2.05625 6.55243 2.05941 6.99198C2.06258 7.43152 2.06416 7.67343 2.06416 7.7177C2.06416 7.76197 2.06258 8.00388 2.05941 8.44343C2.05625 8.88298 2.05625 9.21659 2.05941 9.44427C2.06258 9.67194 2.07206 9.9771 2.08787 10.3597C2.10368 10.7424 2.13531 11.0681 2.18274 11.3368C2.23017 11.6056 2.28867 11.8317 2.35824 12.0151C2.48473 12.3314 2.66814 12.6096 2.90846 12.85C3.14879 13.0903 3.42707 13.2737 3.74329 13.4002C3.92669 13.4697 4.15279 13.5283 4.42158 13.5757C4.69037 13.6231 5.01607 13.6547 5.3987 13.6705C5.78133 13.6864 6.08648 13.6958 6.31416 13.699C6.54184 13.7022 6.87545 13.7022 7.31499 13.699C7.75454 13.6958 7.99645 13.6943 8.04072 13.6943C8.08499 13.6943 8.3269 13.6958 8.76645 13.699C9.20599 13.7022 9.5396 13.7022 9.76728 13.699C9.99496 13.6958 10.3001 13.6864 10.6827 13.6705C11.0654 13.6547 11.3911 13.6231 11.6599 13.5757C11.9286 13.5283 12.1547 13.4697 12.3382 13.4002C12.6544 13.2737 12.9326 13.0903 13.173 12.85C13.4133 12.6096 13.5967 12.3314 13.7232 12.0151C13.7928 11.8317 13.8513 11.6056 13.8987 11.3368C13.9461 11.0681 13.9778 10.7424 13.9936 10.3597C14.0094 9.9771 14.0189 9.67194 14.022 9.44427C14.0252 9.21659 14.0252 8.88298 14.022 8.44343C14.0189 8.00388 14.0173 7.76197 14.0173 7.7177C14.0173 7.67343 14.0189 7.43152 14.022 6.99198C14.0252 6.55243 14.0252 6.21882 14.022 5.99114C14.0189 5.76346 14.0094 5.45831 13.9936 5.07568C13.9778 4.69306 13.9461 4.36735 13.8987 4.09856C13.8513 3.82978 13.7928 3.60368 13.7232 3.42027C13.5967 3.10405 13.4133 2.82578 13.173 2.58545C12.9326 2.34512 12.6544 2.16171 12.3382 2.03523C12.1547 1.96566 11.9286 1.90716 11.6599 1.85972C11.3911 1.81229 11.0654 1.78067 10.6827 1.76486C10.3001 1.74905 9.99496 1.73956 9.76728 1.7364C9.5396 1.73324 9.20599 1.73324 8.76645 1.7364ZM15.279 4.71045C15.3106 5.267 15.3264 6.26941 15.3264 7.7177C15.3264 9.16599 15.3106 10.1684 15.279 10.725C15.2158 12.0404 14.8236 13.0587 14.1027 13.7796C13.3817 14.5006 12.3635 14.8927 11.048 14.956C10.4914 14.9876 9.48901 15.0034 8.04072 15.0034C6.59243 15.0034 5.59001 14.9876 5.03346 14.956C3.71799 14.8927 2.69976 14.5006 1.97878 13.7796C1.2578 13.0587 0.865682 12.0404 0.802438 10.725C0.770816 10.1684 0.755005 9.16599 0.755005 7.7177C0.755005 6.26941 0.770816 5.267 0.802438 4.71045C0.865682 3.39497 1.2578 2.37674 1.97878 1.65576C2.69976 0.934779 3.71799 0.542666 5.03346 0.479423C5.59001 0.447801 6.59243 0.43199 8.04072 0.43199C9.48901 0.43199 10.4914 0.447801 11.048 0.479423C12.3635 0.542666 13.3817 0.934779 14.1027 1.65576C14.8236 2.37674 15.2158 3.39497 15.279 4.71045Z" fill="#F44336"/>
</svg>
