<svg width="18" height="15" viewBox="0 0 18 15" fill="none" xmlns="http://www.w3.org/2000/svg">
<path d="M17.7607 5.17317V12.7055C17.7607 13.1229 17.6121 13.4803 17.3149 13.7775C17.0176 14.0748 16.6603 14.2234 16.2429 14.2234H2.2786C1.86119 14.2234 1.50386 14.0748 1.20661 13.7775C0.909366 13.4803 0.760742 13.1229 0.760742 12.7055V5.17317C1.03902 5.48306 1.3584 5.75817 1.71889 5.9985C4.00832 7.5543 5.57994 8.64526 6.43373 9.27138C6.79422 9.537 7.08673 9.74413 7.31124 9.89275C7.53576 10.0414 7.83459 10.1932 8.20773 10.3481C8.58087 10.5031 8.92871 10.5805 9.25126 10.5805H9.26074H9.27023C9.59277 10.5805 9.94062 10.5031 10.3138 10.3481C10.6869 10.1932 10.9857 10.0414 11.2102 9.89275C11.4348 9.74413 11.7273 9.537 12.0878 9.27138C13.1629 8.49348 14.7377 7.40252 16.8121 5.9985C17.1726 5.75185 17.4888 5.47674 17.7607 5.17317ZM17.7607 2.3841C17.7607 2.88373 17.6058 3.36122 17.2959 3.81658C16.986 4.27194 16.6002 4.66089 16.1385 4.98343C13.7606 6.6341 12.2806 7.66182 11.6988 8.06658C11.6356 8.11085 11.5012 8.2073 11.2956 8.35592C11.0901 8.50455 10.9193 8.62471 10.7833 8.71641C10.6474 8.80812 10.4829 8.91089 10.29 9.02473C10.0971 9.13857 9.91532 9.22395 9.74456 9.28087C9.5738 9.33779 9.41569 9.36625 9.27023 9.36625H9.26074H9.25126C9.10579 9.36625 8.94768 9.33779 8.77693 9.28087C8.60617 9.22395 8.42434 9.13857 8.23145 9.02473C8.03855 8.91089 7.87412 8.80812 7.73814 8.71641C7.60217 8.62471 7.43141 8.50455 7.22586 8.35592C7.02032 8.2073 6.88593 8.11085 6.82268 8.06658C6.24716 7.66182 5.41867 7.08472 4.33719 6.33527C3.25572 5.58583 2.60747 5.13522 2.39244 4.98343C2.00033 4.71781 1.63035 4.35257 1.28251 3.88773C0.934663 3.42289 0.760742 2.99125 0.760742 2.59281C0.760742 2.0995 0.891974 1.68842 1.15444 1.35955C1.4169 1.03068 1.79162 0.866245 2.2786 0.866245H16.2429C16.654 0.866245 17.0097 1.01487 17.3101 1.31212C17.6105 1.60936 17.7607 1.96669 17.7607 2.3841Z" fill="#F44336"/>
</svg>
