<svg width="15" height="15" viewBox="0 0 15 15" fill="none" xmlns="http://www.w3.org/2000/svg">
<path d="M14.1093 11.3111C14.1093 11.4819 14.0777 11.7048 14.0144 11.9799C13.9512 12.255 13.8848 12.4716 13.8152 12.6297C13.6824 12.946 13.2966 13.2812 12.6579 13.6353C12.0634 13.9579 11.4752 14.1191 10.8933 14.1191C10.7226 14.1191 10.555 14.1081 10.3906 14.0859C10.2261 14.0638 10.0443 14.0243 9.84508 13.9674C9.64586 13.9104 9.49724 13.8646 9.39921 13.8298C9.30118 13.795 9.12568 13.7302 8.8727 13.6353C8.61973 13.5405 8.46478 13.4835 8.40786 13.4646C7.78807 13.2432 7.23468 12.9807 6.7477 12.6772C5.9445 12.1775 5.10968 11.4945 4.24324 10.6281C3.37679 9.76163 2.69376 8.9268 2.19413 8.1236C1.89056 7.63663 1.6281 7.08324 1.40674 6.46345C1.38777 6.40653 1.33085 6.25158 1.23598 5.9986C1.14112 5.74563 1.07629 5.57013 1.04151 5.4721C1.00672 5.37407 0.960872 5.22545 0.903952 5.02623C0.847033 4.82701 0.807505 4.64518 0.78537 4.48075C0.763234 4.31631 0.752167 4.14872 0.752167 3.97796C0.752167 3.39611 0.913439 2.80794 1.23598 2.21345C1.59015 1.57468 1.92534 1.1889 2.24156 1.05608C2.39967 0.986514 2.61629 0.920108 2.8914 0.856864C3.16651 0.793619 3.38944 0.761997 3.5602 0.761997C3.64874 0.761997 3.71515 0.771484 3.75942 0.790458C3.87326 0.828403 4.04086 1.06873 4.26221 1.51144C4.33178 1.6316 4.42665 1.80236 4.54681 2.02372C4.66697 2.24507 4.77765 2.44587 4.87884 2.62612C4.98003 2.80636 5.07806 2.97554 5.17293 3.13365C5.1919 3.15895 5.24724 3.238 5.33894 3.37081C5.43065 3.50363 5.49863 3.61589 5.5429 3.70759C5.58717 3.79929 5.60931 3.88942 5.60931 3.97796C5.60931 4.10445 5.51919 4.26256 5.33894 4.45229C5.1587 4.64202 4.96264 4.81594 4.75077 4.97405C4.5389 5.13216 4.34285 5.29976 4.1626 5.47684C3.98236 5.65392 3.89223 5.79939 3.89223 5.91323C3.89223 5.97015 3.90804 6.04129 3.93967 6.12667C3.97129 6.21205 3.99817 6.27688 4.0203 6.32115C4.04244 6.36542 4.08671 6.44131 4.15312 6.54883C4.21952 6.65634 4.25589 6.71642 4.26221 6.72907C4.74287 7.59552 5.29309 8.33863 5.91288 8.95843C6.53267 9.57822 7.27579 10.1284 8.14223 10.6091C8.15488 10.6154 8.21496 10.6518 8.32248 10.7182C8.42999 10.7846 8.50589 10.8289 8.55016 10.851C8.59443 10.8731 8.65925 10.9 8.74463 10.9316C8.83001 10.9633 8.90116 10.9791 8.95808 10.9791C9.07192 10.9791 9.21738 10.889 9.39447 10.7087C9.57155 10.5285 9.73915 10.3324 9.89726 10.1205C10.0554 9.90867 10.2293 9.71261 10.419 9.53237C10.6088 9.35212 10.7669 9.262 10.8933 9.262C10.9819 9.262 11.072 9.28413 11.1637 9.3284C11.2554 9.37267 11.3677 9.44066 11.5005 9.53237C11.6333 9.62407 11.7124 9.67941 11.7377 9.69838C11.8958 9.79325 12.0649 9.89128 12.2452 9.99247C12.4254 10.0937 12.6262 10.2043 12.8476 10.3245C13.0689 10.4447 13.2397 10.5395 13.3599 10.6091C13.8026 10.8305 14.0429 10.998 14.0808 11.1119C14.0998 11.1562 14.1093 11.2226 14.1093 11.3111Z" fill="#F44336"/>
</svg>
