<svg width="21" height="18" viewBox="0 0 21 18" fill="none" xmlns="http://www.w3.org/2000/svg">
<path d="M9.91466 10.4994V15.2137C9.91466 15.8684 9.68549 16.425 9.22716 16.8833C8.76882 17.3416 8.21227 17.5708 7.55751 17.5708H2.84323C2.18846 17.5708 1.63192 17.3416 1.17358 16.8833C0.715251 16.425 0.486084 15.8684 0.486084 15.2137V6.5708C0.486084 5.71961 0.651821 4.9073 0.983294 4.13386C1.31477 3.36042 1.76287 2.69134 2.3276 2.12661C2.89233 1.56187 3.56142 1.11377 4.33486 0.782297C5.10829 0.450825 5.92061 0.285088 6.7718 0.285088H7.55751C7.77031 0.285088 7.95446 0.362841 8.10997 0.518347C8.26547 0.673853 8.34323 0.858006 8.34323 1.0708V2.64223C8.34323 2.85503 8.26547 3.03918 8.10997 3.19469C7.95446 3.35019 7.77031 3.42795 7.55751 3.42795H6.7718C5.90424 3.42795 5.16354 3.73486 4.5497 4.3487C3.93586 4.96254 3.62894 5.70324 3.62894 6.5708V6.96366C3.62894 7.29104 3.74352 7.56931 3.97269 7.79848C4.20186 8.02765 4.48013 8.14223 4.80751 8.14223H7.55751C8.21227 8.14223 8.76882 8.3714 9.22716 8.82973C9.68549 9.28806 9.91466 9.84461 9.91466 10.4994ZM20.9147 10.4994V15.2137C20.9147 15.8684 20.6855 16.425 20.2272 16.8833C19.7688 17.3416 19.2123 17.5708 18.5575 17.5708H13.8432C13.1885 17.5708 12.6319 17.3416 12.1736 16.8833C11.7153 16.425 11.4861 15.8684 11.4861 15.2137V6.5708C11.4861 5.71961 11.6518 4.9073 11.9833 4.13386C12.3148 3.36042 12.7629 2.69134 13.3276 2.12661C13.8923 1.56187 14.5614 1.11377 15.3349 0.782297C16.1083 0.450825 16.9206 0.285088 17.7718 0.285088H18.5575C18.7703 0.285088 18.9545 0.362841 19.11 0.518347C19.2655 0.673853 19.3432 0.858006 19.3432 1.0708V2.64223C19.3432 2.85503 19.2655 3.03918 19.11 3.19469C18.9545 3.35019 18.7703 3.42795 18.5575 3.42795H17.7718C16.9042 3.42795 16.1635 3.73486 15.5497 4.3487C14.9359 4.96254 14.6289 5.70324 14.6289 6.5708V6.96366C14.6289 7.29104 14.7435 7.56931 14.9727 7.79848C15.2019 8.02765 15.4801 8.14223 15.8075 8.14223H18.5575C19.2123 8.14223 19.7688 8.3714 20.2272 8.82973C20.6855 9.28806 20.9147 9.84461 20.9147 10.4994Z" fill="#8E8E8E"/>
</svg>
